<?xml version="1.0" encoding="utf-8"?><!DOCTYPE svg PUBLIC "-//W3C//DTD SVG 1.1//EN" "http://www.w3.org/Graphics/SVG/1.1/DTD/svg11.dtd"><svg version="1.1" id="Layer_1" xmlns="http://www.w3.org/2000/svg" xmlns:xlink="http://www.w3.org/1999/xlink" x="0px" y="0px" width="34px" height="34px" viewBox="0 0 50 50" enable-background="new 0 0 50 50" xml:space="preserve"><g><g id="XMLID_1_"><g><path class = "label" fill="#6D6E71" d="M30.311,11.707v3.289h6.658v-3.289H30.311z M28.312,14.996v-3.329h-6.618v3.329H28.312z M17.06,4.256 v-3.27h3.309l-0.007,3.27h9.222v-3.27h3.402v3.27h2.657v4.78h3.349l2.191,16.673l-14.855-8.43h-2.656l-14.575,8.43l1.911-16.673 h3.356v-4.78H17.06z M19.657,15.036v-3.409h-6.658v3.409H19.657z"/><polygon class = "label" fill="#6D6E71" points="6.353,48.334 1,35.576 1,32.974 23.112,20.309 25.07,43.167 26.888,20.309 49,32.974 49,35.576 43.554,48.334 			"/></g></g></g></svg>