<?xml version="1.0" encoding="utf-8"?>
<!-- Generator: Adobe Illustrator 16.0.0, SVG Export Plug-In . SVG Version: 6.00 Build 0)  -->
<!DOCTYPE svg PUBLIC "-//W3C//DTD SVG 1.1//EN" "http://www.w3.org/Graphics/SVG/1.1/DTD/svg11.dtd">
<svg version="1.1" id="Layer_1" xmlns="http://www.w3.org/2000/svg" xmlns:xlink="http://www.w3.org/1999/xlink" x="0px" y="0px"
	 width="270px" height="5px" viewBox="0 0 270 5" enable-background="new 0 0 270 5" xml:space="preserve">
<g>
	<defs>
		<rect id="SVGID_1_" width="270" height="5"/>
	</defs>
	<clipPath id="SVGID_2_">
		<use xlink:href="#SVGID_1_"  overflow="visible"/>
	</clipPath>
	<g clip-path="url(#SVGID_2_)">
		<ellipse cx="-0.057" cy="5" rx="2.067" ry="2.807"/>
		<ellipse cx="265.146" cy="5.001" rx="2.067" ry="2.806"/>
		<ellipse cx="260.235" cy="5.001" rx="2.067" ry="2.806"/>
		<ellipse cx="255.324" cy="5.001" rx="2.067" ry="2.806"/>
		<ellipse cx="250.413" cy="5.001" rx="2.067" ry="2.806"/>
		<ellipse cx="245.501" cy="5.001" rx="2.067" ry="2.806"/>
		<ellipse cx="240.59" cy="5.001" rx="2.067" ry="2.806"/>
		<ellipse cx="235.679" cy="5.001" rx="2.067" ry="2.806"/>
		<ellipse cx="230.768" cy="5.001" rx="2.067" ry="2.806"/>
		<ellipse cx="225.857" cy="5.001" rx="2.067" ry="2.806"/>
		<ellipse cx="220.946" cy="5.001" rx="2.067" ry="2.806"/>
		<ellipse cx="216.035" cy="5.001" rx="2.067" ry="2.806"/>
		<ellipse cx="211.124" cy="5.001" rx="2.067" ry="2.806"/>
		<ellipse cx="206.212" cy="5.001" rx="2.067" ry="2.806"/>
		<ellipse cx="201.301" cy="5.001" rx="2.067" ry="2.806"/>
		<ellipse cx="196.39" cy="5.001" rx="2.067" ry="2.806"/>
		<ellipse cx="191.479" cy="5.001" rx="2.067" ry="2.806"/>
		<ellipse cx="186.568" cy="5.001" rx="2.067" ry="2.806"/>
		<ellipse cx="181.656" cy="5.001" rx="2.066" ry="2.806"/>
		<ellipse cx="176.746" cy="5.001" rx="2.067" ry="2.806"/>
		<ellipse cx="171.834" cy="5.001" rx="2.067" ry="2.806"/>
		<ellipse cx="166.923" cy="5.001" rx="2.067" ry="2.806"/>
		<ellipse cx="162.012" cy="5.001" rx="2.067" ry="2.806"/>
		<ellipse cx="157.1" cy="5.001" rx="2.067" ry="2.806"/>
		<ellipse cx="152.189" cy="5.001" rx="2.067" ry="2.806"/>
		<ellipse cx="147.278" cy="5.001" rx="2.067" ry="2.806"/>
		<ellipse cx="142.367" cy="5.001" rx="2.067" ry="2.806"/>
		<ellipse cx="137.456" cy="5.001" rx="2.067" ry="2.806"/>
		<ellipse cx="132.544" cy="5.001" rx="2.067" ry="2.806"/>
		<ellipse cx="127.633" cy="5.001" rx="2.067" ry="2.806"/>
		<ellipse cx="122.722" cy="5.001" rx="2.067" ry="2.806"/>
		<ellipse cx="117.811" cy="5.001" rx="2.067" ry="2.806"/>
		<ellipse cx="112.9" cy="5.001" rx="2.067" ry="2.806"/>
		<ellipse cx="107.989" cy="5.001" rx="2.067" ry="2.806"/>
		<ellipse cx="103.078" cy="5.001" rx="2.067" ry="2.806"/>
		<ellipse cx="98.167" cy="5.001" rx="2.067" ry="2.806"/>
		<ellipse cx="93.255" cy="5.001" rx="2.067" ry="2.806"/>
		<ellipse cx="88.344" cy="5.001" rx="2.067" ry="2.806"/>
		<ellipse cx="83.433" cy="5.001" rx="2.067" ry="2.806"/>
		<ellipse cx="78.521" cy="5.001" rx="2.067" ry="2.806"/>
		<ellipse cx="73.61" cy="5.001" rx="2.067" ry="2.806"/>
		<ellipse cx="68.699" cy="5.001" rx="2.067" ry="2.806"/>
		<ellipse cx="63.788" cy="5.001" rx="2.067" ry="2.806"/>
		<ellipse cx="58.876" cy="5.001" rx="2.067" ry="2.806"/>
		<ellipse cx="53.965" cy="5.001" rx="2.067" ry="2.806"/>
		<ellipse cx="49.054" cy="5.001" rx="2.067" ry="2.806"/>
		<ellipse cx="44.143" cy="5.001" rx="2.067" ry="2.806"/>
		<ellipse cx="39.232" cy="5.001" rx="2.067" ry="2.806"/>
		<ellipse cx="34.321" cy="5.001" rx="2.067" ry="2.806"/>
		<ellipse cx="29.41" cy="5.001" rx="2.067" ry="2.806"/>
		<ellipse cx="24.499" cy="5.001" rx="2.067" ry="2.806"/>
		<ellipse cx="19.587" cy="5.001" rx="2.067" ry="2.806"/>
		<ellipse cx="14.676" cy="5.001" rx="2.067" ry="2.806"/>
		<ellipse cx="9.765" cy="5.001" rx="2.067" ry="2.806"/>
		<ellipse cx="4.854" cy="5.001" rx="2.067" ry="2.806"/>
		<ellipse cx="270.058" cy="5" rx="2.066" ry="2.807"/>
	</g>
</g>
</svg>
