<?xml version="1.0" encoding="utf-8"?><!DOCTYPE svg PUBLIC "-//W3C//DTD SVG 1.1//EN" "http://www.w3.org/Graphics/SVG/1.1/DTD/svg11.dtd"><svg version="1.1" id="Layer_1" xmlns="http://www.w3.org/2000/svg" xmlns:xlink="http://www.w3.org/1999/xlink" x="0px" y="0px" width="34px" height="34px" viewBox="0 0 50 50" enable-background="new 0 0 50 50" xml:space="preserve"><g><path fill="#6D6E71" d="M49.642,25.468c-0.715,1.43-5.176,2.141-13.379,2.141l-5.084,6.689l2.141,0.535c0.535,0,0.803,0.268,0.803,0.803 c0,0.895-0.359,1.338-1.07,1.338h-4.014l-3.211,4.549l2.141,0.268c0.535,0.18,0.803,0.535,0.803,1.07c0,0.715-0.359,1.07-1.07,1.07 l-4.014,0.268l-3.479,4.549c-0.359,0.535-0.803,0.803-1.338,0.803h-2.943l5.887-13.379c1.246-2.496,1.873-4.725,1.873-6.689 c0-1.426-0.895-2.141-2.676-2.141c-3.57,0-7.584-0.268-12.041-0.803l-5.084,6.689L0.14,33.763l2.676-8.295c-0.895-0.176-1.697-0.355-2.408-0.535c0.711-0.176,1.514-0.355,2.408-0.535L0.14,15.835l3.746,0.803l5.084,6.689c4.457-0.355,8.471-0.623,12.041-0.803c1.781,0.18,2.676-0.535,2.676-2.141c0-1.961-0.627-4.281-1.873-6.957L15.927,0.315h2.943c0.711,0,1.158,0.268,1.338,0.803l3.479,4.549L27.7,5.935c0.711,0,1.07,0.359,1.07,1.07c0,0.535-0.268,0.895-0.803,1.07L25.827,8.61l3.211,4.281l4.014,0.268c0.711,0.18,1.07,0.535,1.07,1.07s-0.268,0.803-0.803,0.803l-2.141,0.535l5.084,6.689C46.251,22.257,50.712,23.327,49.642,25.468z"/></g></svg>